HIERARCHY
ROOT Hips
{
	OFFSET -0.001795 -0.223333 0.028219
	CHANNELS 6 Xposition Yposition Zposition Zrotation Yrotation Xrotation 
	JOINT LeftUpLeg
	{
		OFFSET 0.069520 -0.091406 -0.006815
		CHANNELS 3 Zrotation Yrotation Xrotation
		JOINT LeftLeg
		{
			OFFSET 0.034277 -0.375199 -0.004496
			CHANNELS 3 Zrotation Yrotation Xrotation
			JOINT LeftFoot
			{
				OFFSET -0.013596 -0.397961 -0.043693
				CHANNELS 3 Zrotation Yrotation Xrotation
				JOINT LeftToe
				{
					OFFSET 0.026358 -0.055791 0.119288
					CHANNELS 3 Zrotation Yrotation Xrotation
					End Site
					{
						OFFSET 0.000000 0.000000 0.000000
					}
				}
			}
		}
	}
	JOINT RightUpLeg
	{
		OFFSET -0.067670 -0.090522 -0.004320
		CHANNELS 3 Zrotation Yrotation Xrotation
		JOINT RightLeg
		{
			OFFSET -0.038290 -0.382569 -0.008850
			CHANNELS 3 Zrotation Yrotation Xrotation
			JOINT RightFoot
			{
				OFFSET 0.015774 -0.398415 -0.042312
				CHANNELS 3 Zrotation Yrotation Xrotation
				JOINT RightToe
				{
					OFFSET -0.025372 -0.048144 0.123348
					CHANNELS 3 Zrotation Yrotation Xrotation
					End Site
					{
						OFFSET 0.000000 0.000000 0.000000
					}
				}
			}
		}
	}
	JOINT Spine
	{
		OFFSET -0.002533 0.108963 -0.026696
		CHANNELS 3 Zrotation Yrotation Xrotation
		JOINT Spine1
		{
			OFFSET 0.005487 0.135180 0.001092
			CHANNELS 3 Zrotation Yrotation Xrotation
			JOINT Spine2
			{
				OFFSET 0.001457 0.052922 0.025425
				CHANNELS 3 Zrotation Yrotation Xrotation
				JOINT Neck
				{
					OFFSET -0.002778 0.213870 -0.042857
					CHANNELS 3 Zrotation Yrotation Xrotation
					JOINT Head
					{
						OFFSET 0.005152 0.064970 0.051349
						CHANNELS 3 Zrotation Yrotation Xrotation
						End Site
						{
							OFFSET 0.000000 0.000000 0.000000
						}
					}
				}
				JOINT LeftShoulder
				{
					OFFSET 0.078845 0.121749 -0.034090
					CHANNELS 3 Zrotation Yrotation Xrotation
					JOINT LeftArm
					{
						OFFSET 0.090977 0.030469 -0.008868
						CHANNELS 3 Zrotation Yrotation Xrotation
						JOINT LeftForeArm
						{
							OFFSET 0.259612 -0.012772 -0.027456
							CHANNELS 3 Zrotation Yrotation Xrotation
							JOINT LeftHand
							{
								OFFSET 0.249234 0.008986 -0.001171
								CHANNELS 3 Zrotation Yrotation Xrotation
								End Site
								{
									OFFSET 0.000000 0.000000 0.000000
								}
							}
						}
					}
				}
				JOINT RightShoulder
				{
					OFFSET -0.081759 0.118833 -0.038615
					CHANNELS 3 Zrotation Yrotation Xrotation
					JOINT RightArm
					{
						OFFSET -0.096012 0.032551 -0.009143
						CHANNELS 3 Zrotation Yrotation Xrotation
						JOINT RightForeArm
						{
							OFFSET -0.253742 -0.013329 -0.021401
							CHANNELS 3 Zrotation Yrotation Xrotation
							JOINT RightHand
							{
								OFFSET -0.255298 0.007772 -0.005559
								CHANNELS 3 Zrotation Yrotation Xrotation
								End Site
								{
									OFFSET 0.000000 0.000000 0.000000
								}
							}
						}
					}
				}
			}
		}
	}
}
MOTION
Frames: 14
Frame Time: 0.050000
0.000000 0.884879 0.000000 -2.238672 4.387797 4.088580 9.202806 -0.833975 -26.820946 -6.399672 0.902302 36.369973 14.909609 26.719734 24.130756 0.000000 0.000000 0.000000 -0.869983 2.773022 -34.179534 -0.190851 1.134948 47.366171 -8.496754 -20.325391 10.976014 0.000000 0.000000 0.000000 5.640102 -1.794547 16.867493 -1.045779 0.626174 -4.893762 -4.140275 2.496066 7.046496 11.934077 -5.634483 -16.479182 0.000000 0.000000 0.000000 -1.350549 -10.673225 3.446579 -34.227460 -27.145754 2.789742 130.659160 -47.113532 -84.067198 0.000000 0.000000 0.000000 5.667126 1.398563 0.508500 40.254846 30.863282 5.900781 -136.256850 54.195233 -91.540957 0.000000 0.000000 0.000000 
0.000358 0.882353 -0.000646 -2.716368 4.109049 5.366645 10.455003 -0.609872 -28.419910 -7.671690 1.548095 37.278445 14.466067 26.467999 21.473417 0.000000 0.000000 0.000000 0.057945 3.114878 -34.804612 -1.322600 1.845508 47.035008 -7.519174 -18.579639 7.474997 0.000000 0.000000 0.000000 5.832038 -1.694716 15.435470 -0.055345 0.154788 -3.554102 -4.411202 2.539818 6.237140 11.491227 -5.489633 -15.648588 0.000000 0.000000 0.000000 -2.222270 -8.670197 2.697562 -32.505526 -28.608547 3.005827 127.042227 -46.741354 -79.140484 0.000000 0.000000 0.000000 4.720966 -0.024972 -0.075484 40.825023 32.554363 6.744278 -137.683539 53.937410 -93.016289 0.000000 0.000000 0.000000 
0.000683 0.878819 -0.001389 -2.698236 3.530842 4.247618 10.688979 -0.469629 -27.279124 -8.423558 1.995201 38.553107 14.061371 26.221031 17.420286 0.000000 0.000000 0.000000 -0.442392 2.986497 -34.150125 -0.368838 1.421831 46.877680 -8.135551 -19.789370 8.513319 0.000000 0.000000 0.000000 5.533955 -1.705352 16.357989 0.708994 -0.203396 -3.008007 -4.806699 3.395955 6.377117 12.026195 -5.919193 -15.112713 0.000000 0.000000 0.000000 -1.290674 -9.112547 2.878491 -31.364701 -29.577669 3.038398 121.615867 -45.115022 -71.475397 0.000000 0.000000 0.000000 5.322398 0.791178 0.302200 36.912995 34.132508 6.278777 -134.174738 49.960556 -82.605491 0.000000 0.000000 0.000000 
0.000798 0.874717 -0.001908 -2.928566 4.095921 4.443377 10.534154 -0.595392 -29.236727 -8.185599 1.850915 42.050787 13.452446 25.617770 15.533173 0.000000 0.000000 0.000000 -0.500635 3.027547 -35.778868 -0.396002 1.361944 49.302822 -7.625415 -18.769282 9.309436 0.000000 0.000000 0.000000 5.786007 -1.741672 16.111825 0.942555 -0.361152 -1.803264 -4.726024 2.606404 6.114003 11.797881 -5.824591 -15.015715 0.000000 0.000000 0.000000 -0.748240 -8.082647 2.586270 -29.804551 -29.770737 2.855216 117.523790 -44.506113 -66.156696 0.000000 0.000000 0.000000 3.537185 -1.087566 -0.473476 36.903807 35.561379 6.855420 -132.555598 47.612742 -77.640655 0.000000 0.000000 0.000000 
0.000897 0.870396 -0.002033 -3.180573 4.115330 4.155663 10.854111 -0.527755 -29.550766 -8.612631 2.095458 43.936118 13.247514 25.540563 12.575612 0.000000 0.000000 0.000000 -0.562699 3.020032 -35.971071 -0.285986 1.293684 49.642848 -7.472775 -18.470821 9.780997 0.000000 0.000000 0.000000 5.248610 -1.703254 16.661079 1.736335 -0.700179 -2.156901 -4.841620 2.860229 6.535947 12.164618 -6.222676 -14.355925 0.000000 0.000000 0.000000 -1.227568 -8.627617 2.729039 -26.464091 -29.725425 2.311548 113.515369 -43.201460 -60.869264 0.000000 0.000000 0.000000 3.272034 -0.400659 -0.182933 34.126878 34.962440 5.917544 -130.860822 45.547200 -72.458646 0.000000 0.000000 0.000000 
0.000977 0.867418 -0.001578 -3.314263 4.239484 4.328585 11.002571 -0.519986 -30.147549 -8.872231 2.249981 45.526781 12.782493 25.059925 9.827034 0.000000 0.000000 0.000000 -0.532564 3.045184 -36.391549 -0.781374 1.582715 50.457767 -6.437916 -16.452522 8.655083 0.000000 0.000000 0.000000 5.354205 -1.740953 16.769658 1.812559 -0.741280 -2.030602 -4.844411 2.607945 6.587665 12.077400 -6.087219 -14.750722 0.000000 0.000000 0.000000 -0.775529 -8.427559 2.700617 -25.285089 -30.231258 2.205608 112.696004 -42.339983 -58.941447 0.000000 0.000000 0.000000 3.006171 -0.918220 -0.388329 32.263669 36.038516 5.750890 -129.063573 44.911777 -69.611447 0.000000 0.000000 0.000000 
0.001225 0.866353 -0.000688 -3.254570 4.021925 4.108372 11.176325 -0.451240 -30.027348 -9.065638 2.405877 45.665781 12.745564 24.936278 10.583030 0.000000 0.000000 0.000000 -0.546354 3.050457 -36.151093 -1.029997 1.789456 50.481997 -6.147182 -15.883559 8.438874 0.000000 0.000000 0.000000 5.235879 -1.740821 17.070271 1.681734 -0.682284 -2.051055 -4.911145 2.368438 6.555888 12.463143 -6.374057 -14.739973 0.000000 0.000000 0.000000 -0.529893 -8.422745 2.725593 -23.736129 -30.422492 1.993083 111.573495 -40.542424 -55.560928 0.000000 0.000000 0.000000 2.834835 -1.252111 -0.526341 30.449550 36.417399 5.372624 -127.492752 44.333908 -67.335884 0.000000 0.000000 0.000000 
0.001568 0.866999 0.000247 -3.303605 3.798310 4.160427 11.402858 -0.375681 -30.107219 -9.232723 2.566618 46.048948 12.275036 24.213958 10.547866 0.000000 0.000000 0.000000 -0.512687 3.071201 -35.909406 -1.269986 1.985490 50.280462 -5.562087 -14.683358 7.715995 0.000000 0.000000 0.000000 5.104728 -1.726531 17.198852 1.824037 -0.754504 -1.929329 -4.939548 2.011195 6.332283 12.813428 -6.588664 -14.923379 0.000000 0.000000 0.000000 -0.400923 -7.818387 2.543975 -22.777620 -31.395212 1.994701 111.673932 -38.784975 -53.173212 0.000000 0.000000 0.000000 2.599351 -1.166448 -0.500700 28.858265 37.434459 5.216701 -126.183901 44.185985 -66.095670 0.000000 0.000000 0.000000 
0.001909 0.868535 0.001030 -3.295427 3.650716 4.333443 11.363717 -0.367658 -29.783712 -9.182448 2.559311 45.509360 12.108296 23.983813 9.986332 0.000000 0.000000 0.000000 -0.486240 3.067895 -35.521585 -1.349429 2.043139 49.470996 -5.516460 -14.556927 7.219233 0.000000 0.000000 0.000000 5.012250 -1.724873 17.360406 2.102402 -0.870116 -2.105815 -5.183120 2.082540 6.582967 13.602042 -6.904249 -15.757751 0.000000 0.000000 0.000000 0.440990 -8.157433 2.710365 -22.696824 -31.972653 2.032559 113.549225 -36.961932 -52.423574 0.000000 0.000000 0.000000 2.426975 -1.368702 -0.569786 27.252439 38.409237 5.004412 -125.389499 44.246799 -65.351486 0.000000 0.000000 0.000000 
0.002113 0.869964 0.001843 -3.425241 3.449382 4.559298 11.918584 -0.221177 -29.799037 -9.758344 2.924056 45.317957 11.848096 23.572192 10.037817 0.000000 0.000000 0.000000 -0.489544 3.077608 -35.338174 -1.348554 2.065378 48.736348 -5.164939 -13.847930 7.125576 0.000000 0.000000 0.000000 5.083744 -1.753422 17.524373 2.183545 -0.908416 -2.080407 -5.246531 2.069842 6.434314 14.072389 -7.058710 -16.331321 0.000000 0.000000 0.000000 0.633730 -7.799328 2.607363 -22.786130 -32.480572 2.128629 114.730729 -36.363022 -52.543432 0.000000 0.000000 0.000000 2.253439 -1.318167 -0.547573 26.327042 38.746360 4.840730 -125.393847 44.663761 -66.101299 0.000000 0.000000 0.000000 
0.002193 0.870965 0.002794 -3.507510 3.316575 4.807848 12.092028 -0.170572 -29.798714 -9.931715 3.042505 44.998810 11.969542 23.751595 10.144317 0.000000 0.000000 0.000000 -0.624202 3.043023 -35.190170 -1.180028 1.974989 48.117366 -4.888834 -13.252755 6.801960 0.000000 0.000000 0.000000 5.040511 -1.764826 17.709040 2.284457 -0.955708 -2.048686 -5.206790 1.933397 6.548231 14.066758 -6.929613 -16.920198 0.000000 0.000000 0.000000 0.702588 -7.674806 2.575888 -23.330528 -32.093307 2.161377 116.915778 -36.399637 -54.291996 0.000000 0.000000 0.000000 2.176147 -1.171356 -0.493627 26.325385 39.141735 4.914261 -125.626862 45.455495 -67.628218 0.000000 0.000000 0.000000 
0.002298 0.871024 0.003732 -3.589719 3.007533 4.939940 12.513556 -0.040940 -29.849615 -10.298681 3.315771 44.916214 11.891635 23.591978 10.676489 0.000000 0.000000 0.000000 -0.463630 3.099375 -34.865960 -1.449791 2.175976 47.420000 -4.638011 -12.656634 6.111838 0.000000 0.000000 0.000000 4.973777 -1.754526 17.794731 2.457736 -1.056587 -1.694001 -5.184528 2.023629 6.217580 14.247742 -6.888254 -17.472671 0.000000 0.000000 0.000000 0.160610 -7.506459 2.486901 -24.403981 -30.924600 2.191885 119.037265 -38.181539 -58.578694 0.000000 0.000000 0.000000 2.708665 -1.152427 -0.510988 27.314200 39.020283 5.178068 -127.435952 47.026148 -71.945722 0.000000 0.000000 0.000000 
0.002542 0.869994 0.004445 -3.629202 2.731784 5.122190 12.693364 0.031848 -30.214631 -10.634368 3.589513 45.263920 12.328412 24.206557 11.204421 0.000000 0.000000 0.000000 -0.597600 3.106526 -35.037644 -1.416984 2.221385 47.448082 -4.262250 -11.797854 5.601435 0.000000 0.000000 0.000000 4.928428 -1.777909 18.179756 2.416444 -1.035599 -1.731621 -4.810327 2.105898 6.084820 14.561120 -6.949763 -18.015104 0.000000 0.000000 0.000000 -1.056770 -7.302343 2.343611 -25.317394 -29.061746 2.045581 123.135453 -40.083799 -65.103605 0.000000 0.000000 0.000000 3.386414 -1.172993 -0.553471 28.422388 38.509504 5.353761 -129.936166 48.384983 -76.891670 0.000000 0.000000 0.000000 
0.002954 0.869097 0.004717 -3.691553 2.682844 5.146966 12.501250 -0.006682 -30.433428 -10.425628 3.495730 45.428290 12.963021 25.096327 11.884804 0.000000 0.000000 0.000000 -0.680445 3.089025 -35.046362 -1.552475 2.313724 47.551843 -3.777425 -10.659133 5.095220 0.000000 0.000000 0.000000 4.886755 -1.818511 18.686400 2.605819 -1.120900 -1.739705 -4.851525 2.150205 6.005895 14.624815 -6.802379 -18.731256 0.000000 0.000000 0.000000 -1.699118 -7.294766 2.297476 -26.018201 -27.452763 1.872966 126.991040 -41.233285 -70.885769 0.000000 0.000000 0.000000 4.013858 -1.098524 -0.550454 29.199601 37.364195 5.268685 -131.452664 48.633011 -79.059796 0.000000 0.000000 0.000000 
